<svg width="105" height="37" viewBox="0 0 105 37" fill="none" xmlns="http://www.w3.org/2000/svg">
<path d="M28.04 0.383998V36H22.28V32.688C21.288 33.904 20.056 34.816 18.584 35.424C17.144 36.032 15.544 36.336 13.784 36.336C11.32 36.336 9.096 35.792 7.112 34.704C5.16 33.616 3.624 32.08 2.504 30.096C1.384 28.08 0.824 25.776 0.824 23.184C0.824 20.592 1.384 18.304 2.504 16.32C3.624 14.336 5.16 12.8 7.112 11.712C9.096 10.624 11.32 10.08 13.784 10.08C15.48 10.08 17.032 10.368 18.44 10.944C19.848 11.52 21.048 12.384 22.04 13.536V0.383998H28.04ZM14.504 31.2C15.944 31.2 17.24 30.88 18.392 30.24C19.544 29.568 20.456 28.624 21.128 27.408C21.8 26.192 22.136 24.784 22.136 23.184C22.136 21.584 21.8 20.176 21.128 18.96C20.456 17.744 19.544 16.816 18.392 16.176C17.24 15.504 15.944 15.168 14.504 15.168C13.064 15.168 11.768 15.504 10.616 16.176C9.464 16.816 8.552 17.744 7.88 18.96C7.208 20.176 6.872 21.584 6.872 23.184C6.872 24.784 7.208 26.192 7.88 27.408C8.552 28.624 9.464 29.568 10.616 30.24C11.768 30.88 13.064 31.2 14.504 31.2ZM45.6811 10.08C49.4571 10.08 52.3371 10.992 54.3211 12.816C56.3371 14.608 57.3451 17.328 57.3451 20.976V36H51.6811V32.88C50.9451 34 49.8891 34.864 48.5131 35.472C47.1691 36.048 45.5371 36.336 43.6171 36.336C41.6971 36.336 40.0171 36.016 38.5771 35.376C37.1371 34.704 36.0171 33.792 35.2171 32.64C34.4491 31.456 34.0651 30.128 34.0651 28.656C34.0651 26.352 34.9131 24.512 36.6091 23.136C38.3371 21.728 41.0411 21.024 44.7211 21.024H51.3451V20.64C51.3451 18.848 50.8011 17.472 49.7131 16.512C48.6571 15.552 47.0731 15.072 44.9611 15.072C43.5211 15.072 42.0971 15.296 40.6891 15.744C39.3131 16.192 38.1451 16.816 37.1851 17.616L34.8331 13.248C36.1771 12.224 37.7931 11.44 39.6811 10.896C41.5691 10.352 43.5691 10.08 45.6811 10.08ZM44.8651 31.968C46.3691 31.968 47.6971 31.632 48.8491 30.96C50.0331 30.256 50.8651 29.264 51.3451 27.984V25.008H45.1531C41.6971 25.008 39.9691 26.144 39.9691 28.416C39.9691 29.504 40.4011 30.368 41.2651 31.008C42.1291 31.648 43.3291 31.968 44.8651 31.968ZM79.5894 10.08C82.8214 10.08 85.4134 11.024 87.3654 12.912C89.3174 14.8 90.2934 17.6 90.2934 21.312V36H84.2934V22.08C84.2934 19.84 83.7654 18.16 82.7094 17.04C81.6534 15.888 80.1494 15.312 78.1974 15.312C75.9894 15.312 74.2454 15.984 72.9654 17.328C71.6854 18.64 71.0454 20.544 71.0454 23.04V36H65.0454V10.368H70.7574V13.68C71.7494 12.496 72.9974 11.6 74.5014 10.992C76.0054 10.384 77.7014 10.08 79.5894 10.08Z" fill="black"/>
<path d="M100.257 36.384C98.9448 36.384 97.8408 35.936 96.9448 35.04C96.0488 34.144 95.6008 33.024 95.6008 31.68C95.6008 30.304 96.0488 29.2 96.9448 28.368C97.8408 27.504 98.9448 27.072 100.257 27.072C101.569 27.072 102.673 27.504 103.569 28.368C104.465 29.2 104.913 30.304 104.913 31.68C104.913 33.024 104.465 34.144 103.569 35.04C102.673 35.936 101.569 36.384 100.257 36.384Z" fill="#FC4748"/>
</svg>
